<svg width="960" height="600" viewBox="0 0 960 600" fill="none" xmlns="http://www.w3.org/2000/svg">
  <rect width="960" height="600" rx="42" fill="url(#bg)"/>
  <circle cx="784" cy="128" r="110" fill="#29D3C4" opacity="0.14"/>
  <circle cx="162" cy="514" r="100" fill="#8A7CFF" opacity="0.14"/>
  <rect x="68" y="68" width="824" height="464" rx="32" fill="#0E1930" stroke="#2B456A" stroke-width="2"/>
  <rect x="108" y="110" width="244" height="158" rx="26" fill="#122440"/>
  <rect x="384" y="110" width="466" height="108" rx="26" fill="#132744"/>
  <rect x="384" y="244" width="214" height="244" rx="26" fill="#12233E"/>
  <rect x="624" y="244" width="226" height="244" rx="26" fill="#102038"/>
  <path d="M214 140L234.009 181.539L280 188.22L246.699 220.661L254.559 266.44L214 245.12L173.441 266.44L181.301 220.661L148 188.22L193.991 181.539L214 140Z" fill="#FF8B52"/>
  <rect x="422" y="140" width="186" height="16" rx="8" fill="#29D3C4"/>
  <rect x="422" y="170" width="282" height="10" rx="5" fill="#44668E"/>
  <rect x="422" y="192" width="242" height="10" rx="5" fill="#44668E"/>
  <rect x="146" y="318" width="152" height="18" rx="9" fill="#7AFEF4"/>
  <rect x="146" y="350" width="176" height="12" rx="6" fill="#45658E"/>
  <rect x="146" y="378" width="132" height="12" rx="6" fill="#45658E"/>
  <rect x="146" y="428" width="176" height="26" rx="13" fill="#213A61"/>
  <rect x="416" y="288" width="150" height="22" rx="11" fill="#FF8B52"/>
  <rect x="416" y="328" width="138" height="12" rx="6" fill="#45658E"/>
  <rect x="416" y="352" width="114" height="12" rx="6" fill="#45658E"/>
  <rect x="416" y="388" width="128" height="62" rx="18" fill="#182D4E"/>
  <circle cx="736" cy="328" r="64" fill="#162B49"/>
  <circle cx="736" cy="328" r="42" fill="#29D3C4"/>
  <rect x="676" y="414" width="120" height="16" rx="8" fill="#7AFEF4"/>
  <rect x="676" y="446" width="146" height="10" rx="5" fill="#45658E"/>
  <defs>
    <linearGradient id="bg" x1="116" y1="62" x2="848" y2="548" gradientUnits="userSpaceOnUse">
      <stop stop-color="#091322"/>
      <stop offset="1" stop-color="#070F1B"/>
    </linearGradient>
  </defs>
</svg>
